<svg width="226" height="78" viewBox="0 0 226 78" fill="none" xmlns="http://www.w3.org/2000/svg">
<path fill-rule="evenodd" clip-rule="evenodd" d="M10.4579 41.9207C13.2212 41.9207 16.3458 43.085 17.9985 45.3888H18.205V42.516H25.6938V66.1474C25.6938 73.9903 19.2383 77.7174 12.8337 77.7174C6.61103 77.7174 0.542148 74.1716 0.490326 67.5197H7.92733C8.10831 70.4954 10.2514 71.8678 12.7309 71.8678C15.2096 71.8678 17.7402 70.3405 17.7402 66.5615V62.9381H17.5337C15.8554 64.9567 13.0402 66.0434 10.4579 66.0434C4.1833 66.0434 0 60.0389 0 53.9044C0 47.7703 4.1833 41.9207 10.4579 41.9207ZM84.724 42.4904V55.8721C84.724 57.8651 86.2732 59.4699 88.2101 59.4699C90.1465 59.4699 91.6965 57.8651 91.6965 55.8721V42.4904H99.649V55.7425C99.649 62.524 95.001 66.6651 88.2101 66.6651C81.548 66.6651 76.7707 62.6792 76.7707 55.7425V42.4904H84.724ZM213.578 41.8687C220.5 41.8687 226 47.0457 226 54.2929C226 54.9681 225.937 55.5394 225.887 55.9109L225.871 56.027H209.267C209.551 59.055 211.435 60.7635 213.734 60.7635C215.016 60.7635 216.321 60.245 217.447 59.0046L217.607 58.8226H225.277C223.288 64.1544 218.434 66.6388 213.578 66.6388C207.356 66.6388 201.158 62.524 201.158 54.2929C201.158 47.0457 206.658 41.8687 213.578 41.8687ZM42.0398 41.6618C49.2446 41.6618 55.1316 46.7612 55.1316 54.1117C55.1316 61.4629 49.2446 66.5615 42.0398 66.5615C34.8609 66.5615 29.0512 61.5141 29.0512 54.1117C29.0512 46.7092 34.8609 41.6618 42.0398 41.6618ZM156.485 28.2025V66.0434H148.997V62.9117H148.79C146.75 65.2155 143.909 66.5095 141.043 66.5095C134.588 66.5095 130.301 60.6086 130.301 54.2153C130.301 47.8223 134.588 41.9463 141.043 41.9463C143.522 41.9463 146.492 42.8781 148.325 45.1043H148.532V28.2025H156.485ZM69.6182 27.5297C71.0898 27.5297 72.6134 27.7103 73.9306 28.0211V34.4662C73.3366 34.3112 72.8718 34.2329 72.3554 34.2329C70.2122 34.2329 68.3529 35.1135 68.3529 37.96V42.516H73.2074V48.961H68.3529V66.0434H60.3993V48.961H56.9392V42.516H60.3993V36.3043C60.3993 30.4281 64.5569 27.5297 69.6182 27.5297ZM118.474 41.8687C122.864 41.8687 126.944 44.9751 126.944 51.0316V66.0434H118.991V52.6884C118.991 50.3322 117.416 48.7541 115.427 48.7541C113.439 48.7541 111.864 50.3842 111.864 52.6884V66.0434H103.911V42.516H111.399V45.4665H111.605C113.387 43.0338 116.228 41.8687 118.474 41.8687ZM189.59 41.8687C193.799 41.8687 197.802 45.0267 197.802 50.954V66.0434H189.848V52.4039C189.848 50.203 188.402 48.7541 186.595 48.7541C184.761 48.7541 183.315 50.2294 183.315 52.4039V66.0434H175.362V52.4039C175.362 50.203 173.916 48.7541 172.108 48.7541C170.274 48.7541 168.828 50.2294 168.828 52.4039V66.0434H160.874V42.516H168.363V45.4665H168.57C170.145 43.085 172.805 41.895 175.335 41.895C177.789 41.895 180.346 43.189 181.895 45.9586H182.101C184.064 43.137 186.878 41.8687 189.59 41.8687ZM143.342 48.9346C140.424 48.9346 138.048 51.3161 138.048 54.2409C138.048 57.1657 140.424 59.5728 143.342 59.5728C146.26 59.5728 148.635 57.1657 148.635 54.2409C148.635 51.3161 146.26 48.9346 143.342 48.9346ZM42.0914 48.7541C39.2253 48.7541 36.9012 51.1348 36.9012 54.1117C36.9012 57.0885 39.2253 59.4699 42.0914 59.4699C44.9578 59.4699 47.2818 57.0885 47.2818 54.1117C47.2818 51.1348 44.9578 48.7541 42.0914 48.7541ZM12.8082 48.9346C10.0194 48.9346 7.74713 51.1868 7.74713 53.982C7.74713 56.7776 10.0194 59.055 12.8082 59.055C15.5971 59.055 17.8438 56.7776 17.8438 53.982C17.8438 51.1868 15.5971 48.9346 12.8082 48.9346ZM213.63 47.7183C211.539 47.7183 209.757 49.0643 209.163 51.7566H217.969C217.478 49.1163 215.722 47.7183 213.63 47.7183ZM222.096 34.5821L223.561 38.9032L225.017 34.5821H225.999V39.6926H225.34V36.6759C225.34 36.572 225.342 36.3994 225.347 36.158C225.352 35.9167 225.354 35.6578 225.354 35.382L223.899 39.6926H223.213L221.744 35.382V35.5387C221.744 35.6641 221.748 35.8543 221.755 36.1109C221.762 36.3674 221.765 36.5552 221.765 36.6759V39.6926H221.106V34.5821H222.096ZM220.487 34.5821V35.191H218.77V39.6926H218.072V35.191H216.354V34.5821H220.487ZM113 22.4096C121.941 22.4096 129.742 27.2811 133.919 34.5174H92.0807C96.2583 27.2811 104.059 22.4096 113 22.4096ZM137.029 10.7988C138.579 9.2453 141.115 9.2453 142.664 10.7988C144.214 12.3515 144.214 14.8928 142.664 16.4464L136.659 22.4655C135.11 24.0182 132.574 24.0182 131.024 22.4655L130.888 22.3216C129.477 20.7589 129.522 18.3236 131.024 16.818L137.029 10.7988ZM83.5013 10.6618C85.0604 9.24669 87.4899 9.29236 88.992 10.7988L94.998 16.818C96.5468 18.3707 96.5468 20.912 94.998 22.4655C93.448 24.0182 90.9126 24.0182 89.3634 22.4655L83.3578 16.4464C81.8086 14.8928 81.8086 12.3515 83.3578 10.7988L83.5013 10.6618ZM112.95 0L113.122 0.00370849C115.234 0.0948699 116.934 1.85508 116.934 3.99413V12.5058C116.934 14.7026 115.141 16.4999 112.95 16.4999C110.758 16.4999 108.966 14.7026 108.966 12.5058V3.99413C108.966 1.79727 110.758 0 112.95 0Z" fill="#02A95C"/>
</svg>
