<svg width="46" height="47" viewBox="0 0 46 47" fill="none" xmlns="http://www.w3.org/2000/svg">
<rect y="0.938477" width="45.7457" height="45.7457" rx="22.8729" fill="#9425B6"/>
<path d="M22.8764 12.5612C26.5435 12.5612 26.9739 12.5775 28.4233 12.6429C29.7637 12.7028 30.4884 12.9262 30.9733 13.1169C31.6163 13.3676 32.074 13.6618 32.5535 14.1413C33.033 14.6208 33.3327 15.0785 33.5779 15.7215C33.7631 16.2064 33.992 16.9311 34.0519 18.2715C34.1173 19.7209 34.1336 20.1513 34.1336 23.8184C34.1336 27.4854 34.1173 27.9159 34.0519 29.3653C33.992 30.7057 33.7686 31.4304 33.5779 31.9153C33.3272 32.5583 33.033 33.016 32.5535 33.4954C32.074 33.9749 31.6163 34.2746 30.9733 34.5198C30.4884 34.7051 29.7637 34.9339 28.4233 34.9939C26.9739 35.0593 26.5435 35.0756 22.8764 35.0756C19.2094 35.0756 18.7789 35.0593 17.3295 34.9939C15.9891 34.9339 15.2644 34.7105 14.7795 34.5198C14.1365 34.2692 13.6788 33.9749 13.1993 33.4954C12.7198 33.016 12.4202 32.5583 12.175 31.9153C11.9897 31.4304 11.7609 30.7057 11.7009 29.3653C11.6355 27.9159 11.6192 27.4854 11.6192 23.8184C11.6192 20.1513 11.6355 19.7209 11.7009 18.2715C11.7609 16.9311 11.9843 16.2064 12.175 15.7215C12.4256 15.0785 12.7198 14.6208 13.1993 14.1413C13.6788 13.6618 14.1365 13.3621 14.7795 13.1169C15.2644 12.9317 15.9891 12.7028 17.3295 12.6429C18.7789 12.5721 19.2148 12.5612 22.8764 12.5612ZM22.8764 10.0874C19.1494 10.0874 18.6808 10.1037 17.2151 10.1691C15.7548 10.2345 14.7577 10.4688 13.8859 10.8066C12.9814 11.1554 12.2186 11.6294 11.4557 12.3922C10.6929 13.1551 10.2243 13.9234 9.87012 14.8224C9.5323 15.6942 9.298 16.6913 9.23261 18.1571C9.16723 19.6174 9.15088 20.0859 9.15088 23.8129C9.15088 27.5399 9.16723 28.0085 9.23261 29.4742C9.298 30.9345 9.5323 31.9316 9.87012 32.8089C10.2188 33.7134 10.6929 34.4762 11.4557 35.2391C12.2186 36.0019 12.9868 36.4705 13.8859 36.8247C14.7577 37.1625 15.7548 37.3968 17.2206 37.4622C18.6863 37.5276 19.1494 37.5439 22.8819 37.5439C26.6143 37.5439 27.0774 37.5276 28.5432 37.4622C30.0034 37.3968 31.0006 37.1625 31.8778 36.8247C32.7823 36.4759 33.5452 36.0019 34.308 35.2391C35.0708 34.4762 35.5394 33.708 35.8936 32.8089C36.2314 31.9371 36.4657 30.94 36.5311 29.4742C36.5965 28.0085 36.6128 27.5454 36.6128 23.8129C36.6128 20.0805 36.5965 19.6174 36.5311 18.1516C36.4657 16.6913 36.2314 15.6942 35.8936 14.817C35.5449 13.9125 35.0708 13.1496 34.308 12.3868C33.5452 11.624 32.7769 11.1554 31.8778 10.8012C31.006 10.4634 30.0089 10.2291 28.5432 10.1637C27.072 10.1037 26.6034 10.0874 22.8764 10.0874Z" fill="white"/>
<path d="M22.8767 16.7681C18.9862 16.7681 15.8259 19.9229 15.8259 23.8188C15.8259 27.7147 18.9808 30.8696 22.8767 30.8696C26.7726 30.8696 29.9274 27.7147 29.9274 23.8188C29.9274 19.9229 26.7726 16.7681 22.8767 16.7681ZM22.8767 28.3904C20.3484 28.3904 18.2997 26.3416 18.2997 23.8134C18.2997 21.2851 20.3484 19.2364 22.8767 19.2364C25.4049 19.2364 27.4537 21.2851 27.4537 23.8134C27.4537 26.3416 25.4049 28.3904 22.8767 28.3904Z" fill="white"/>
<path d="M30.2051 18.1299C31.1139 18.1299 31.8506 17.3932 31.8506 16.4844C31.8506 15.5756 31.1139 14.8389 30.2051 14.8389C29.2963 14.8389 28.5596 15.5756 28.5596 16.4844C28.5596 17.3932 29.2963 18.1299 30.2051 18.1299Z" fill="white"/>
</svg>
