<svg width="46" height="46" viewBox="0 0 46 46" fill="none" xmlns="http://www.w3.org/2000/svg">
<rect x="0.103027" width="45.7457" height="45.7457" rx="22.8729" fill="#1D9BF0"/>
<path d="M18.79 34.9383C28.9341 34.9383 34.4808 26.5325 34.4808 19.2475C34.4808 19.0074 34.4808 18.7672 34.4693 18.5385C35.5443 17.7608 36.4821 16.7887 37.2255 15.6794C36.242 16.1139 35.1784 16.4113 34.0576 16.5485C35.2012 15.8623 36.0704 14.7873 36.4821 13.495C35.4185 14.124 34.2406 14.5815 32.9826 14.8331C31.9762 13.758 30.5466 13.0947 28.957 13.0947C25.9149 13.0947 23.4446 15.565 23.4446 18.6071C23.4446 19.0417 23.4903 19.4648 23.5933 19.8651C19.0073 19.6364 14.9473 17.4406 12.2255 14.1011C11.7566 14.9131 11.4821 15.8623 11.4821 16.8687C11.4821 18.7786 12.4542 20.4712 13.9409 21.4548C13.0375 21.4319 12.1912 21.1803 11.4478 20.7686C11.4478 20.7914 11.4478 20.8143 11.4478 20.8372C11.4478 23.5133 13.3462 25.732 15.8737 26.2466C15.4162 26.3724 14.9245 26.441 14.4213 26.441C14.0667 26.441 13.7236 26.4067 13.3805 26.3381C14.0782 28.5339 16.1139 30.1236 18.5269 30.1693C16.6399 31.6446 14.2611 32.5252 11.6765 32.5252C11.2305 32.5252 10.7959 32.5023 10.3613 32.4452C12.7744 34.0234 15.6793 34.9383 18.79 34.9383Z" fill="white"/>
</svg>
