<svg width="46" height="47" viewBox="0 0 46 47" fill="none" xmlns="http://www.w3.org/2000/svg">
<rect x="0.123535" y="0.938477" width="45.7457" height="45.7457" rx="22.8729" fill="#FF0000"/>
<path d="M38.6624 15.9551C38.2856 14.5554 37.1819 13.4517 35.7822 13.0749C33.225 12.375 22.9962 12.375 22.9962 12.375C22.9962 12.375 12.7674 12.375 10.2102 13.0479C8.83734 13.4248 7.70678 14.5554 7.32993 15.9551C6.65698 18.5123 6.65698 23.8151 6.65698 23.8151C6.65698 23.8151 6.65698 29.1449 7.32993 31.6752C7.70678 33.0749 8.81042 34.1785 10.2102 34.5554C12.7943 35.2552 22.9962 35.2552 22.9962 35.2552C22.9962 35.2552 33.225 35.2552 35.7822 34.5823C37.1819 34.2055 38.2856 33.1018 38.6624 31.7021C39.3354 29.1449 39.3354 23.842 39.3354 23.842C39.3354 23.842 39.3623 18.5123 38.6624 15.9551Z" fill="white"/>
<path d="M19.739 28.7141L28.2451 23.8151L19.739 18.916V28.7141Z" fill="#FF0000"/>
</svg>
