<svg width="129" height="117" viewBox="0 0 129 117" fill="none" xmlns="http://www.w3.org/2000/svg">
<mask id="path-1-outside-1_1_123" maskUnits="userSpaceOnUse" x="-1.05123" y="-0.728886" width="130.279" height="86.9539" fill="black">
<rect fill="white" x="-1.05123" y="-0.728886" width="130.279" height="86.9539"/>
<path d="M113.954 70.4491C115.243 58.624 112.294 46.725 105.634 36.8696C98.9731 27.0141 89.0318 19.8413 77.579 16.6276C66.1261 13.4139 53.9045 14.3677 43.0889 19.3193C32.2733 24.2709 23.5652 32.8991 18.5141 43.6686L64.0044 65.0043L113.954 70.4491Z"/>
</mask>
<path d="M113.954 70.4491C115.243 58.624 112.294 46.725 105.634 36.8696C98.9731 27.0141 89.0318 19.8413 77.579 16.6276C66.1261 13.4139 53.9045 14.3677 43.0889 19.3193C32.2733 24.2709 23.5652 32.8991 18.5141 43.6686L64.0044 65.0043L113.954 70.4491Z" fill="#BB2D4B"/>
<path d="M113.954 70.4491C115.243 58.624 112.294 46.725 105.634 36.8696C98.9731 27.0141 89.0318 19.8413 77.579 16.6276C66.1261 13.4139 53.9045 14.3677 43.0889 19.3193C32.2733 24.2709 23.5652 32.8991 18.5141 43.6686L64.0044 65.0043L113.954 70.4491Z" stroke="#FBFBFB" stroke-opacity="0.36" stroke-width="27.7214" mask="url(#path-1-outside-1_1_123)"/>
<circle cx="64.0042" cy="65.0042" r="50.2451" transform="rotate(0.872247 64.0042 65.0042)" fill="#9BCA3C"/>
<path d="M55.2634 48.7346L80.7805 65.6929L54.759 81.8666L55.2634 48.7346Z" fill="#D9D9D9"/>
</svg>
